<svg width="243" height="196" viewBox="0 0 243 196" fill="none" xmlns="http://www.w3.org/2000/svg">
<path d="M27.864 121.24C29.592 121.24 31.08 121.36 32.328 121.6C33.624 121.792 34.824 122.08 35.928 122.464C35.928 123.28 35.928 124.144 35.928 125.056C35.976 125.968 36 126.952 36 128.008C36 129.064 35.976 130.192 35.928 131.392C35.928 132.544 35.928 133.624 35.928 134.632C34.104 133.48 31.92 132.904 29.376 132.904C26.976 132.904 24.96 133.36 23.328 134.272C21.744 135.136 20.448 136.264 19.44 137.656C18.48 139.048 17.784 140.584 17.352 142.264C16.968 143.896 16.776 145.456 16.776 146.944C16.776 148.96 17.088 150.856 17.712 152.632C18.336 154.408 19.2 155.968 20.304 157.312C21.456 158.608 22.776 159.64 24.264 160.408C25.8 161.176 27.456 161.56 29.232 161.56C30.048 161.56 31.08 161.44 32.328 161.2C33.624 160.96 34.824 160.504 35.928 159.832C35.928 161.512 35.928 163.264 35.928 165.088C35.976 166.912 36 168.688 36 170.416C36 172.24 35.976 174.016 35.928 175.744C35.928 177.472 35.928 179.2 35.928 180.928C33.24 181.504 30.504 181.792 27.72 181.792C23.496 181.792 19.704 181.096 16.344 179.704C13.032 178.312 10.2 176.32 7.848 173.728C5.544 171.088 3.768 167.92 2.52 164.224C1.32 160.48 0.72 156.304 0.72 151.696C0.72 147.28 1.296 143.224 2.448 139.528C3.6 135.784 5.304 132.568 7.56 129.88C9.864 127.144 12.696 125.032 16.056 123.544C19.464 122.008 23.4 121.24 27.864 121.24ZM50.157 120.448C49.917 127.12 49.725 133.888 49.581 140.752C49.485 147.616 49.437 154.912 49.437 162.64C49.437 165.904 49.437 168.544 49.437 170.56C49.437 172.528 49.437 174.16 49.437 175.456C49.437 176.704 49.437 177.736 49.437 178.552C49.485 179.32 49.509 180.136 49.509 181H38.709C38.853 176.776 38.949 171.832 38.997 166.168C39.045 160.504 39.069 153.928 39.069 146.44C39.069 143.176 39.069 140.416 39.069 138.16C39.069 135.856 39.045 133.768 38.997 131.896C38.997 130.024 38.997 128.224 38.997 126.496C38.997 124.72 38.997 122.704 38.997 120.448H50.157ZM88.0464 181H78.1824V177.472C76.4544 178.864 74.6304 179.944 72.7104 180.712C70.7904 181.432 68.9184 181.792 67.0944 181.792C64.9344 181.792 62.9424 181.264 61.1184 180.208C59.2944 179.152 57.7104 177.688 56.3664 175.816C55.0704 173.896 54.0384 171.616 53.2704 168.976C52.5024 166.336 52.1184 163.456 52.1184 160.336C52.1184 157.072 52.5264 154.024 53.3424 151.192C54.1584 148.36 55.2624 145.912 56.6544 143.848C58.0944 141.736 59.7744 140.104 61.6944 138.952C63.6624 137.752 65.7744 137.152 68.0304 137.152C69.9984 137.152 71.8704 137.584 73.6464 138.448C75.4224 139.264 76.9344 140.296 78.1824 141.544V137.944H88.4064L88.0464 181ZM65.8704 155.008C65.8704 156.976 66.3984 158.56 67.4544 159.76C68.5584 160.96 69.9504 161.56 71.6304 161.56C73.4544 161.56 74.9904 160.912 76.2384 159.616C77.5344 158.32 78.1824 156.664 78.1824 154.648C78.1824 153.736 78.0144 152.872 77.6784 152.056C77.3904 151.24 76.9584 150.544 76.3824 149.968C75.8064 149.344 75.1344 148.864 74.3664 148.528C73.5984 148.192 72.7824 148.024 71.9184 148.024C70.1904 148.024 68.7504 148.672 67.5984 149.968C66.4464 151.264 65.8704 152.944 65.8704 155.008ZM111.742 137.152C114.574 137.152 117.142 137.56 119.446 138.376C119.446 139.192 119.446 140.08 119.446 141.04C119.494 141.952 119.518 142.888 119.518 143.848C119.518 144.856 119.494 145.864 119.446 146.872C119.446 147.88 119.446 148.816 119.446 149.68C117.862 148.336 115.918 147.664 113.614 147.664C112.174 147.664 110.974 147.904 110.014 148.384C109.054 148.816 108.262 149.392 107.638 150.112C107.062 150.832 106.654 151.624 106.414 152.488C106.174 153.304 106.054 154.096 106.054 154.864C106.054 155.92 106.246 156.928 106.63 157.888C107.014 158.8 107.542 159.616 108.214 160.336C108.886 161.056 109.654 161.632 110.518 162.064C111.43 162.448 112.39 162.64 113.398 162.64C114.358 162.64 115.366 162.448 116.422 162.064C117.478 161.68 118.486 161.152 119.446 160.48C119.446 162.064 119.446 163.72 119.446 165.448C119.494 167.128 119.518 168.832 119.518 170.56C119.518 172.24 119.494 173.968 119.446 175.744C119.446 177.472 119.446 179.2 119.446 180.928C116.758 181.504 114.094 181.792 111.454 181.792C108.19 181.792 105.286 181.288 102.742 180.28C100.198 179.224 98.0383 177.736 96.2623 175.816C94.4863 173.896 93.1183 171.568 92.1583 168.832C91.2463 166.048 90.7903 162.952 90.7903 159.544C90.7903 156.328 91.2223 153.352 92.0863 150.616C92.9503 147.832 94.2463 145.456 95.9743 143.488C97.7503 141.52 99.9343 139.984 102.526 138.88C105.166 137.728 108.238 137.152 111.742 137.152ZM156.144 137.944L144.624 158.32L156.936 181H144.624L134.616 163H134.112C134.112 164.392 134.112 165.784 134.112 167.176C134.112 168.52 134.112 169.912 134.112 171.352C134.16 172.792 134.208 174.304 134.256 175.888C134.304 177.472 134.352 179.176 134.4 181H122.52C122.76 175.096 122.904 168.496 122.952 161.2C123 153.856 123.024 145.816 123.024 137.08C123.024 134.152 123.024 131.776 123.024 129.952C123.024 128.128 123.024 126.64 123.024 125.488C123.024 124.336 123 123.4 122.952 122.68C122.952 121.96 122.928 121.216 122.88 120.448H135.12C134.976 124.864 134.856 128.848 134.76 132.4C134.664 135.904 134.568 139.096 134.472 141.976C134.424 144.808 134.376 147.376 134.328 149.68C134.28 151.936 134.232 154.024 134.184 155.944H134.688L144.624 137.944H156.144Z" fill="white"/>
<path d="M161.21 160.808C159.426 159.024 159.138 156.225 160.539 154.127C166.64 144.995 165.661 132.535 157.6 124.474L138.063 104.937C114.171 81.0447 114.171 42.3068 138.063 18.4144C161.955 -5.47794 199.382 -6.78959 224.586 18.4144C249.79 43.6185 248.478 81.0447 224.586 104.937L168.715 160.808C166.642 162.88 163.282 162.88 161.21 160.808Z" fill="white"/>
<path d="M171.538 61.2396C171.538 58.1162 174.069 55.5845 177.193 55.5845H223.676C225.281 55.5845 226.477 54.1161 226.167 52.5406C222.061 31.712 203.53 15.7967 181.572 15.7967C156.642 15.7967 136.13 36.3105 136.13 61.2385C136.13 81.8385 153.081 98.7895 173.681 98.7895C191.257 98.7895 206.177 86.4492 210.178 70.0315C210.568 68.4339 209.354 66.8926 207.709 66.8926H177.193C174.069 66.8926 171.538 64.3609 171.538 61.2374V61.2396Z" fill="#FF2A2A"/>
</svg>
